<mxfile host="app.diagrams.net" modified="2023-09-19T11:37:16.442Z" agent="Mozilla/5.0 (Macintosh; Intel Mac OS X 10_15_7) AppleWebKit/537.36 (KHTML, like Gecko) Chrome/117.0.0.0 Safari/537.36" etag="sJ8eP-Kd8fgRL16Fwu6s" version="21.6.2" type="device">
  <diagram name="Seite-1" id="tfj8x4EL2NQdeRJAWLKg">
    <mxGraphModel dx="1026" dy="621" grid="1" gridSize="10" guides="1" tooltips="1" connect="1" arrows="1" fold="1" page="1" pageScale="1" pageWidth="827" pageHeight="1169" math="0" shadow="0">
      <root>
        <mxCell id="0" />
        <mxCell id="1" parent="0" />
        <mxCell id="XWdfSSxr5j56omLEQyyc-1" value="KBV Bundle" style="shape=folder;fontStyle=1;tabWidth=110;tabHeight=30;tabPosition=left;html=1;boundedLbl=1;labelInHeader=1;container=1;collapsible=0;whiteSpace=wrap;fillColor=#ffe6cc;strokeColor=#d79b00;" vertex="1" parent="1">
          <mxGeometry x="40" y="120" width="340" height="260" as="geometry" />
        </mxCell>
        <mxCell id="XWdfSSxr5j56omLEQyyc-2" value="" style="html=1;strokeColor=none;resizeWidth=1;resizeHeight=1;fillColor=none;part=1;connectable=0;allowArrows=0;deletable=0;whiteSpace=wrap;" vertex="1" parent="XWdfSSxr5j56omLEQyyc-1">
          <mxGeometry width="340" height="182" relative="1" as="geometry">
            <mxPoint y="30" as="offset" />
          </mxGeometry>
        </mxCell>
        <mxCell id="XWdfSSxr5j56omLEQyyc-3" value="Coverage" style="rounded=1;whiteSpace=wrap;html=1;movable=0;resizable=0;rotatable=0;deletable=0;editable=0;locked=1;connectable=0;" vertex="1" parent="XWdfSSxr5j56omLEQyyc-1">
          <mxGeometry x="14.23" y="50" width="135.77" height="30" as="geometry" />
        </mxCell>
        <mxCell id="XWdfSSxr5j56omLEQyyc-6" value="PractitionerRole" style="rounded=1;whiteSpace=wrap;html=1;movable=0;resizable=0;rotatable=0;deletable=0;editable=0;locked=1;connectable=0;" vertex="1" parent="XWdfSSxr5j56omLEQyyc-1">
          <mxGeometry x="14.23" y="130" width="135.77" height="30" as="geometry" />
        </mxCell>
        <mxCell id="XWdfSSxr5j56omLEQyyc-7" value="Patient" style="rounded=1;whiteSpace=wrap;html=1;movable=0;resizable=0;rotatable=0;deletable=0;editable=0;locked=1;connectable=0;" vertex="1" parent="XWdfSSxr5j56omLEQyyc-1">
          <mxGeometry x="14.23" y="170" width="135.77" height="30" as="geometry" />
        </mxCell>
        <mxCell id="XWdfSSxr5j56omLEQyyc-8" value="SupplyRequest" style="rounded=1;whiteSpace=wrap;html=1;movable=0;resizable=0;rotatable=0;deletable=0;editable=0;locked=1;connectable=0;" vertex="1" parent="XWdfSSxr5j56omLEQyyc-1">
          <mxGeometry x="14.23" y="210" width="135.77" height="30" as="geometry" />
        </mxCell>
        <mxCell id="XWdfSSxr5j56omLEQyyc-9" value="MedicationRequest" style="rounded=1;whiteSpace=wrap;html=1;movable=0;resizable=0;rotatable=0;deletable=0;editable=0;locked=1;connectable=0;" vertex="1" parent="XWdfSSxr5j56omLEQyyc-1">
          <mxGeometry x="14.23" y="90" width="135.77" height="30" as="geometry" />
        </mxCell>
        <mxCell id="XWdfSSxr5j56omLEQyyc-11" value="Composition" style="rounded=1;whiteSpace=wrap;html=1;movable=0;resizable=0;rotatable=0;deletable=0;editable=0;locked=1;connectable=0;" vertex="1" parent="XWdfSSxr5j56omLEQyyc-1">
          <mxGeometry x="180" y="50" width="135.77" height="30" as="geometry" />
        </mxCell>
        <mxCell id="XWdfSSxr5j56omLEQyyc-12" value="Medication" style="rounded=1;whiteSpace=wrap;html=1;movable=0;resizable=0;rotatable=0;deletable=0;editable=0;locked=1;connectable=0;" vertex="1" parent="XWdfSSxr5j56omLEQyyc-1">
          <mxGeometry x="180" y="90" width="135.77" height="30" as="geometry" />
        </mxCell>
        <mxCell id="XWdfSSxr5j56omLEQyyc-13" value="Organization" style="rounded=1;whiteSpace=wrap;html=1;movable=0;resizable=0;rotatable=0;deletable=0;editable=0;locked=1;connectable=0;" vertex="1" parent="XWdfSSxr5j56omLEQyyc-1">
          <mxGeometry x="180" y="130" width="135.77" height="30" as="geometry" />
        </mxCell>
        <mxCell id="XWdfSSxr5j56omLEQyyc-14" value="Practitioner" style="rounded=1;whiteSpace=wrap;html=1;movable=0;resizable=0;rotatable=0;deletable=0;editable=0;locked=1;connectable=0;" vertex="1" parent="XWdfSSxr5j56omLEQyyc-1">
          <mxGeometry x="180" y="170" width="135.77" height="30" as="geometry" />
        </mxCell>
        <mxCell id="XWdfSSxr5j56omLEQyyc-15" value="Quittung Bundle" style="shape=folder;fontStyle=1;tabWidth=110;tabHeight=30;tabPosition=left;html=1;boundedLbl=1;labelInHeader=1;container=1;collapsible=0;whiteSpace=wrap;fillColor=#ffe6cc;strokeColor=#d79b00;" vertex="1" parent="1">
          <mxGeometry x="120" y="440" width="180" height="150" as="geometry" />
        </mxCell>
        <mxCell id="XWdfSSxr5j56omLEQyyc-17" value="&lt;u&gt;:MedicationDispense&lt;/u&gt;" style="rounded=1;whiteSpace=wrap;html=1;movable=1;resizable=1;rotatable=1;deletable=1;editable=1;locked=0;connectable=1;fillColor=#dae8fc;strokeColor=#6c8ebf;" vertex="1" parent="XWdfSSxr5j56omLEQyyc-15">
          <mxGeometry x="14.230000000000004" y="50" width="135.77" height="30" as="geometry" />
        </mxCell>
        <mxCell id="XWdfSSxr5j56omLEQyyc-18" value="&lt;u&gt;:Composittion&lt;/u&gt;" style="rounded=1;whiteSpace=wrap;html=1;movable=1;resizable=1;rotatable=1;deletable=1;editable=1;locked=0;connectable=1;fillColor=#dae8fc;strokeColor=#6c8ebf;" vertex="1" parent="XWdfSSxr5j56omLEQyyc-15">
          <mxGeometry x="14.230000000000004" y="100" width="135.77" height="30" as="geometry" />
        </mxCell>
        <mxCell id="XWdfSSxr5j56omLEQyyc-19" value="AuditEvent" style="swimlane;whiteSpace=wrap;html=1;fillColor=#ffe6cc;strokeColor=#d79b00;" vertex="1" parent="1">
          <mxGeometry x="510" y="40" width="200" height="150" as="geometry">
            <mxRectangle x="500" y="70" width="100" height="30" as="alternateBounds" />
          </mxGeometry>
        </mxCell>
        <mxCell id="XWdfSSxr5j56omLEQyyc-20" value="&lt;div&gt;&lt;span style=&quot;white-space: pre;&quot;&gt;&#x9;&lt;/span&gt;-&amp;nbsp;action: Coding&lt;/div&gt;&lt;span style=&quot;background-color: initial;&quot;&gt;&amp;nbsp; &amp;nbsp; &amp;nbsp; &amp;nbsp; - agent: BackboneElement&lt;/span&gt;&lt;br&gt;&lt;span style=&quot;background-color: initial;&quot;&gt;&amp;nbsp; &amp;nbsp; &amp;nbsp; &amp;nbsp; - entity: BackboneElement&lt;/span&gt;&lt;br&gt;&lt;span style=&quot;background-color: initial;&quot;&gt;&amp;nbsp; &amp;nbsp; &amp;nbsp; &amp;nbsp; - outcome: code&lt;/span&gt;&lt;br&gt;&lt;span style=&quot;background-color: initial;&quot;&gt;&amp;nbsp; &amp;nbsp; &amp;nbsp; &amp;nbsp; - recorded: instant&lt;/span&gt;&lt;br&gt;&lt;span style=&quot;background-color: initial;&quot;&gt;&amp;nbsp; &amp;nbsp; &amp;nbsp; &amp;nbsp; - source: BackboneElement&lt;/span&gt;&lt;br&gt;&lt;span style=&quot;background-color: initial;&quot;&gt;&amp;nbsp; &amp;nbsp; &amp;nbsp; &amp;nbsp; - subtype: Coding&lt;/span&gt;&lt;br&gt;&lt;div style=&quot;&quot;&gt;&amp;nbsp; &amp;nbsp; &amp;nbsp; &amp;nbsp; - type: Coding&lt;/div&gt;" style="text;html=1;align=left;verticalAlign=middle;resizable=0;points=[];autosize=1;strokeColor=#d79b00;fillColor=#ffe6cc;" vertex="1" parent="XWdfSSxr5j56omLEQyyc-19">
          <mxGeometry y="20" width="200" height="130" as="geometry" />
        </mxCell>
        <mxCell id="XWdfSSxr5j56omLEQyyc-47" style="rounded=0;orthogonalLoop=1;jettySize=auto;html=1;entryX=0;entryY=0.5;entryDx=0;entryDy=0;endArrow=none;endFill=0;jumpStyle=arc;exitX=1;exitY=0.009;exitDx=0;exitDy=0;exitPerimeter=0;" edge="1" parent="1" source="XWdfSSxr5j56omLEQyyc-26" target="XWdfSSxr5j56omLEQyyc-29">
          <mxGeometry relative="1" as="geometry" />
        </mxCell>
        <mxCell id="XWdfSSxr5j56omLEQyyc-56" style="rounded=0;orthogonalLoop=1;jettySize=auto;html=1;entryX=0;entryY=0.5;entryDx=0;entryDy=0;endArrow=none;endFill=0;" edge="1" parent="1" source="XWdfSSxr5j56omLEQyyc-25" target="XWdfSSxr5j56omLEQyyc-31">
          <mxGeometry relative="1" as="geometry" />
        </mxCell>
        <mxCell id="XWdfSSxr5j56omLEQyyc-25" value="Task" style="swimlane;whiteSpace=wrap;html=1;fillColor=#ffe6cc;strokeColor=#d79b00;" vertex="1" parent="1">
          <mxGeometry x="485" y="250" width="280" height="245" as="geometry">
            <mxRectangle x="500" y="70" width="100" height="30" as="alternateBounds" />
          </mxGeometry>
        </mxCell>
        <mxCell id="XWdfSSxr5j56omLEQyyc-26" value="&lt;div&gt;&lt;span style=&quot;white-space: pre;&quot;&gt;&#x9;&lt;/span&gt;- authoredOn: date Time&lt;/div&gt;&lt;div&gt;&amp;nbsp; &amp;nbsp; &amp;nbsp; &amp;nbsp; - extension: acceptDate: dateTime&lt;/div&gt;&lt;div&gt;&amp;nbsp; &amp;nbsp; &amp;nbsp; &amp;nbsp; - extension: expiry Date: dateTime&lt;/div&gt;&lt;div&gt;&amp;nbsp; &amp;nbsp; &amp;nbsp; &amp;nbsp; - extension: flowType: CodeableConcept&lt;/div&gt;&lt;div&gt;&lt;span style=&quot;white-space: pre;&quot;&gt;&#x9;&lt;/span&gt;- extension: lastMedicationDispense instant&lt;br&gt;&lt;/div&gt;&lt;div&gt;&amp;nbsp; &amp;nbsp; &amp;nbsp; &amp;nbsp; - for: Referenz (Resource)&lt;/div&gt;&lt;div&gt;&amp;nbsp; &amp;nbsp; &amp;nbsp; &amp;nbsp; - identifier: AccessCode: Identifier&lt;/div&gt;&lt;div&gt;&amp;nbsp; &amp;nbsp; &amp;nbsp; &amp;nbsp; - identifier: PrescriptionID: identifier&lt;/div&gt;&lt;div&gt;&amp;nbsp; &amp;nbsp; &amp;nbsp; &amp;nbsp; - identifier: Secret: identifier&lt;/div&gt;&lt;div&gt;&amp;nbsp; &amp;nbsp; &amp;nbsp; &amp;nbsp; - input: BackboneElement&lt;/div&gt;&lt;div&gt;&amp;nbsp; &amp;nbsp; &amp;nbsp; &amp;nbsp; - intent: code&lt;/div&gt;&lt;div&gt;&amp;nbsp; &amp;nbsp; &amp;nbsp; &amp;nbsp; - lastModified: date Time&lt;/div&gt;&lt;div&gt;&amp;nbsp; &amp;nbsp; &amp;nbsp; &amp;nbsp; - output: BackboneElement&lt;/div&gt;&lt;div&gt;&amp;nbsp; &amp;nbsp; &amp;nbsp; &amp;nbsp; - performerType: CodeableConcept&lt;/div&gt;&lt;div&gt;&amp;nbsp; &amp;nbsp; &amp;nbsp; &amp;nbsp; - status: code&lt;/div&gt;" style="text;html=1;align=left;verticalAlign=middle;resizable=0;points=[];autosize=1;strokeColor=#d79b00;fillColor=#ffe6cc;" vertex="1" parent="XWdfSSxr5j56omLEQyyc-25">
          <mxGeometry y="23.33" width="280" height="230" as="geometry" />
        </mxCell>
        <mxCell id="XWdfSSxr5j56omLEQyyc-27" value="Communication" style="swimlane;whiteSpace=wrap;html=1;fillColor=#ffe6cc;strokeColor=#d79b00;" vertex="1" parent="1">
          <mxGeometry x="500" y="560" width="200" height="130" as="geometry">
            <mxRectangle x="500" y="70" width="100" height="30" as="alternateBounds" />
          </mxGeometry>
        </mxCell>
        <mxCell id="XWdfSSxr5j56omLEQyyc-28" value="&lt;div&gt;&lt;span style=&quot;white-space: pre;&quot;&gt;&#x9;&lt;/span&gt;- about: Reference&lt;/div&gt;&lt;div&gt;&amp;nbsp; &amp;nbsp; &amp;nbsp; &amp;nbsp; - payload: BackboneElement&lt;/div&gt;&lt;div&gt;&amp;nbsp; &amp;nbsp; &amp;nbsp; &amp;nbsp; - received: dateTime&lt;/div&gt;&lt;div&gt;&amp;nbsp; &amp;nbsp; &amp;nbsp; &amp;nbsp; - recipient: Reference&lt;/div&gt;&lt;div&gt;&amp;nbsp; &amp;nbsp; &amp;nbsp; &amp;nbsp; - sender: Reference&lt;/div&gt;&lt;div&gt;&amp;nbsp; &amp;nbsp; &amp;nbsp; &amp;nbsp; - sent: DateTime&lt;/div&gt;&lt;div&gt;&amp;nbsp; &amp;nbsp; &amp;nbsp; &amp;nbsp; - status: code&lt;/div&gt;" style="text;html=1;align=left;verticalAlign=middle;resizable=0;points=[];autosize=1;strokeColor=#d79b00;fillColor=#ffe6cc;" vertex="1" parent="XWdfSSxr5j56omLEQyyc-27">
          <mxGeometry y="25" width="200" height="110" as="geometry" />
        </mxCell>
        <mxCell id="XWdfSSxr5j56omLEQyyc-29" value="Organization" style="swimlane;whiteSpace=wrap;html=1;fillColor=#ffe6cc;strokeColor=#d79b00;" vertex="1" parent="1">
          <mxGeometry x="880" y="80" width="220" height="110" as="geometry">
            <mxRectangle x="500" y="70" width="100" height="30" as="alternateBounds" />
          </mxGeometry>
        </mxCell>
        <mxCell id="XWdfSSxr5j56omLEQyyc-30" value="&lt;div&gt;&lt;span style=&quot;white-space: pre;&quot;&gt;&#x9;&lt;/span&gt;- active: boolean&lt;/div&gt;&lt;div&gt;&amp;nbsp; &amp;nbsp; &amp;nbsp; &amp;nbsp; - address: Address&lt;/div&gt;&lt;div&gt;&amp;nbsp; &amp;nbsp; &amp;nbsp; &amp;nbsp; - identifier: TelematikID: Identifier&lt;/div&gt;&lt;div&gt;&amp;nbsp; &amp;nbsp; &amp;nbsp; &amp;nbsp; - name: string&lt;/div&gt;&lt;div&gt;&amp;nbsp; &amp;nbsp; &amp;nbsp; &amp;nbsp; - type: CodeableConcept&lt;/div&gt;" style="text;html=1;align=left;verticalAlign=middle;resizable=0;points=[];autosize=1;strokeColor=#d79b00;fillColor=#ffe6cc;" vertex="1" parent="XWdfSSxr5j56omLEQyyc-29">
          <mxGeometry y="20" width="220" height="90" as="geometry" />
        </mxCell>
        <mxCell id="XWdfSSxr5j56omLEQyyc-31" value="MedicationDispense" style="swimlane;whiteSpace=wrap;html=1;fillColor=#ffe6cc;strokeColor=#d79b00;" vertex="1" parent="1">
          <mxGeometry x="850" y="250" width="280" height="130" as="geometry">
            <mxRectangle x="500" y="70" width="100" height="30" as="alternateBounds" />
          </mxGeometry>
        </mxCell>
        <mxCell id="XWdfSSxr5j56omLEQyyc-32" value="&lt;div&gt;&lt;span style=&quot;white-space: pre;&quot;&gt;&#x9;&lt;/span&gt;- dosageInstruktion: Dosage&lt;/div&gt;&lt;div&gt;&amp;nbsp; &amp;nbsp; &amp;nbsp; &amp;nbsp; - identifier: PrescriptionID: Identifier&lt;/div&gt;&lt;div&gt;&amp;nbsp; &amp;nbsp; &amp;nbsp; &amp;nbsp; - medication: contained&lt;/div&gt;&lt;div&gt;&amp;nbsp; &amp;nbsp; &amp;nbsp; &amp;nbsp; - performer: BackboneElement status: code&lt;/div&gt;&lt;div&gt;&amp;nbsp; &amp;nbsp; &amp;nbsp; &amp;nbsp; - subject: Reference (Patient)&amp;nbsp;&lt;/div&gt;&lt;div&gt;&amp;nbsp; &amp;nbsp; &amp;nbsp; &amp;nbsp; - whenHanded Over: dateTime&amp;nbsp;&lt;/div&gt;&lt;div&gt;&amp;nbsp; &amp;nbsp; &amp;nbsp; &amp;nbsp; - whenPrepared: date Time&lt;/div&gt;" style="text;html=1;align=left;verticalAlign=middle;resizable=0;points=[];autosize=1;strokeColor=#d79b00;fillColor=#ffe6cc;" vertex="1" parent="XWdfSSxr5j56omLEQyyc-31">
          <mxGeometry y="20" width="280" height="110" as="geometry" />
        </mxCell>
        <mxCell id="XWdfSSxr5j56omLEQyyc-33" value="ContainedResources" style="shape=folder;fontStyle=1;tabWidth=140;tabHeight=30;tabPosition=left;html=1;boundedLbl=1;labelInHeader=1;container=1;collapsible=0;whiteSpace=wrap;fillColor=#ffe6cc;strokeColor=#d79b00;" vertex="1" parent="1">
          <mxGeometry x="920" y="450" width="210" height="100" as="geometry" />
        </mxCell>
        <mxCell id="XWdfSSxr5j56omLEQyyc-34" value="&lt;u&gt;:Medication&lt;/u&gt;" style="rounded=1;whiteSpace=wrap;html=1;movable=1;resizable=1;rotatable=1;deletable=1;editable=1;locked=0;connectable=1;fillColor=#dae8fc;strokeColor=#6c8ebf;" vertex="1" parent="XWdfSSxr5j56omLEQyyc-33">
          <mxGeometry x="16.60166666666667" y="33.33333333333333" width="158.39833333333334" height="20" as="geometry" />
        </mxCell>
        <mxCell id="XWdfSSxr5j56omLEQyyc-36" style="rounded=0;orthogonalLoop=1;jettySize=auto;html=1;entryX=0;entryY=0;entryDx=340;entryDy=145;entryPerimeter=0;dashed=1;" edge="1" parent="1" source="XWdfSSxr5j56omLEQyyc-26" target="XWdfSSxr5j56omLEQyyc-1">
          <mxGeometry relative="1" as="geometry" />
        </mxCell>
        <mxCell id="XWdfSSxr5j56omLEQyyc-37" value="1" style="text;html=1;align=center;verticalAlign=middle;resizable=0;points=[];autosize=1;strokeColor=none;fillColor=none;" vertex="1" parent="1">
          <mxGeometry x="455" y="308" width="30" height="30" as="geometry" />
        </mxCell>
        <mxCell id="XWdfSSxr5j56omLEQyyc-38" value="1" style="text;html=1;align=center;verticalAlign=middle;resizable=0;points=[];autosize=1;strokeColor=none;fillColor=none;" vertex="1" parent="1">
          <mxGeometry x="375" y="268" width="30" height="30" as="geometry" />
        </mxCell>
        <mxCell id="XWdfSSxr5j56omLEQyyc-39" style="rounded=0;orthogonalLoop=1;jettySize=auto;html=1;entryX=0;entryY=0;entryDx=180;entryDy=60;entryPerimeter=0;dashed=1;" edge="1" parent="1" source="XWdfSSxr5j56omLEQyyc-26" target="XWdfSSxr5j56omLEQyyc-15">
          <mxGeometry relative="1" as="geometry" />
        </mxCell>
        <mxCell id="XWdfSSxr5j56omLEQyyc-41" style="rounded=0;orthogonalLoop=1;jettySize=auto;html=1;entryX=0.418;entryY=0.004;entryDx=0;entryDy=0;endArrow=none;endFill=0;entryPerimeter=0;exitX=0.46;exitY=0.992;exitDx=0;exitDy=0;exitPerimeter=0;" edge="1" parent="1" source="XWdfSSxr5j56omLEQyyc-20" target="XWdfSSxr5j56omLEQyyc-25">
          <mxGeometry relative="1" as="geometry" />
        </mxCell>
        <mxCell id="XWdfSSxr5j56omLEQyyc-42" value="1" style="text;html=1;align=center;verticalAlign=middle;resizable=0;points=[];autosize=1;strokeColor=none;fillColor=none;" vertex="1" parent="1">
          <mxGeometry x="610" y="228" width="30" height="30" as="geometry" />
        </mxCell>
        <mxCell id="XWdfSSxr5j56omLEQyyc-43" value="1..*" style="text;html=1;align=center;verticalAlign=middle;resizable=0;points=[];autosize=1;strokeColor=none;fillColor=none;" vertex="1" parent="1">
          <mxGeometry x="610" y="190" width="40" height="30" as="geometry" />
        </mxCell>
        <mxCell id="XWdfSSxr5j56omLEQyyc-44" style="edgeStyle=orthogonalEdgeStyle;rounded=0;orthogonalLoop=1;jettySize=auto;html=1;entryX=0.5;entryY=0;entryDx=0;entryDy=0;endArrow=none;endFill=0;exitX=0.411;exitY=0.994;exitDx=0;exitDy=0;exitPerimeter=0;" edge="1" parent="1" source="XWdfSSxr5j56omLEQyyc-26" target="XWdfSSxr5j56omLEQyyc-27">
          <mxGeometry relative="1" as="geometry" />
        </mxCell>
        <mxCell id="XWdfSSxr5j56omLEQyyc-45" value="1" style="text;html=1;align=center;verticalAlign=middle;resizable=0;points=[];autosize=1;strokeColor=none;fillColor=none;" vertex="1" parent="1">
          <mxGeometry x="605" y="500" width="30" height="30" as="geometry" />
        </mxCell>
        <mxCell id="XWdfSSxr5j56omLEQyyc-46" value="0..*" style="text;html=1;align=center;verticalAlign=middle;resizable=0;points=[];autosize=1;strokeColor=none;fillColor=none;" vertex="1" parent="1">
          <mxGeometry x="600" y="530" width="40" height="30" as="geometry" />
        </mxCell>
        <mxCell id="XWdfSSxr5j56omLEQyyc-48" value="1" style="text;html=1;align=center;verticalAlign=middle;resizable=0;points=[];autosize=1;strokeColor=none;fillColor=none;" vertex="1" parent="1">
          <mxGeometry x="855" y="108" width="30" height="30" as="geometry" />
        </mxCell>
        <mxCell id="XWdfSSxr5j56omLEQyyc-49" value="0..*" style="text;html=1;align=center;verticalAlign=middle;resizable=0;points=[];autosize=1;strokeColor=none;fillColor=none;" vertex="1" parent="1">
          <mxGeometry x="730" y="218" width="40" height="30" as="geometry" />
        </mxCell>
        <mxCell id="XWdfSSxr5j56omLEQyyc-50" style="edgeStyle=orthogonalEdgeStyle;rounded=0;orthogonalLoop=1;jettySize=auto;html=1;entryX=0.5;entryY=0;entryDx=0;entryDy=0;endArrow=none;endFill=0;" edge="1" parent="1" source="XWdfSSxr5j56omLEQyyc-30" target="XWdfSSxr5j56omLEQyyc-31">
          <mxGeometry relative="1" as="geometry" />
        </mxCell>
        <mxCell id="XWdfSSxr5j56omLEQyyc-51" value="1" style="text;html=1;align=center;verticalAlign=middle;resizable=0;points=[];autosize=1;strokeColor=none;fillColor=none;" vertex="1" parent="1">
          <mxGeometry x="995" y="188" width="30" height="30" as="geometry" />
        </mxCell>
        <mxCell id="XWdfSSxr5j56omLEQyyc-52" value="0..*" style="text;html=1;align=center;verticalAlign=middle;resizable=0;points=[];autosize=1;strokeColor=none;fillColor=none;" vertex="1" parent="1">
          <mxGeometry x="990" y="220" width="40" height="30" as="geometry" />
        </mxCell>
        <mxCell id="XWdfSSxr5j56omLEQyyc-53" style="rounded=0;orthogonalLoop=1;jettySize=auto;html=1;entryX=0;entryY=0;entryDx=70;entryDy=0;entryPerimeter=0;dashed=1;" edge="1" parent="1" source="XWdfSSxr5j56omLEQyyc-32" target="XWdfSSxr5j56omLEQyyc-33">
          <mxGeometry relative="1" as="geometry" />
        </mxCell>
        <mxCell id="XWdfSSxr5j56omLEQyyc-54" value="1" style="text;html=1;align=center;verticalAlign=middle;resizable=0;points=[];autosize=1;strokeColor=none;fillColor=none;" vertex="1" parent="1">
          <mxGeometry x="990" y="380" width="30" height="30" as="geometry" />
        </mxCell>
        <mxCell id="XWdfSSxr5j56omLEQyyc-55" value="1" style="text;html=1;align=center;verticalAlign=middle;resizable=0;points=[];autosize=1;strokeColor=none;fillColor=none;" vertex="1" parent="1">
          <mxGeometry x="990" y="420" width="30" height="30" as="geometry" />
        </mxCell>
        <mxCell id="XWdfSSxr5j56omLEQyyc-57" value="1" style="text;html=1;align=center;verticalAlign=middle;resizable=0;points=[];autosize=1;strokeColor=none;fillColor=none;" vertex="1" parent="1">
          <mxGeometry x="755" y="308" width="30" height="30" as="geometry" />
        </mxCell>
        <mxCell id="XWdfSSxr5j56omLEQyyc-58" value="1" style="text;html=1;align=center;verticalAlign=middle;resizable=0;points=[];autosize=1;strokeColor=none;fillColor=none;" vertex="1" parent="1">
          <mxGeometry x="825" y="288" width="30" height="30" as="geometry" />
        </mxCell>
        <mxCell id="XWdfSSxr5j56omLEQyyc-59" style="rounded=0;orthogonalLoop=1;jettySize=auto;html=1;entryX=1;entryY=0.5;entryDx=0;entryDy=0;endArrow=none;endFill=0;exitX=0;exitY=0;exitDx=0;exitDy=0;jumpStyle=arc;" edge="1" parent="1" source="XWdfSSxr5j56omLEQyyc-31" target="XWdfSSxr5j56omLEQyyc-19">
          <mxGeometry relative="1" as="geometry" />
        </mxCell>
        <mxCell id="XWdfSSxr5j56omLEQyyc-60" value="1" style="text;html=1;align=center;verticalAlign=middle;resizable=0;points=[];autosize=1;strokeColor=none;fillColor=none;" vertex="1" parent="1">
          <mxGeometry x="845" y="218" width="30" height="30" as="geometry" />
        </mxCell>
        <mxCell id="XWdfSSxr5j56omLEQyyc-61" value="1..*" style="text;html=1;align=center;verticalAlign=middle;resizable=0;points=[];autosize=1;strokeColor=none;fillColor=none;" vertex="1" parent="1">
          <mxGeometry x="710" y="88" width="40" height="30" as="geometry" />
        </mxCell>
      </root>
    </mxGraphModel>
  </diagram>
</mxfile>
